<svg width="24" height="23" viewBox="0 0 24 23" fill="none" xmlns="http://www.w3.org/2000/svg">
<g id="Iconly/Bold/Ticket" opacity="0.4">
<g id="Ticket">
<path id="Ticket_2" fill-rule="evenodd" clip-rule="evenodd" d="M21.7872 7.47427C21.6518 7.61912 21.4681 7.70189 21.2747 7.70189C20.559 7.70189 19.9787 8.32267 19.9787 9.07795C19.9787 9.83841 20.5522 10.4561 21.2611 10.4644C21.6605 10.4685 22 10.7665 22 11.1938V13.8476C22 16.0814 20.3075 17.8931 18.2186 17.8931H15.0658C14.7398 17.8931 14.4758 17.6106 14.4758 17.2619V15.0271C14.4758 14.5926 14.1567 14.2511 13.7505 14.2511C13.354 14.2511 13.0251 14.5926 13.0251 15.0271V17.2619C13.0251 17.6106 12.7611 17.8931 12.4362 17.8931H5.78143C3.70213 17.8931 2 16.0824 2 13.8476V11.1938C2 10.7665 2.33946 10.4685 2.73888 10.4644C3.44874 10.4561 4.02128 9.83841 4.02128 9.07795C4.02128 8.34336 3.46035 7.78466 2.72534 7.78466C2.53191 7.78466 2.34816 7.70189 2.21277 7.55704C2.07737 7.41219 2 7.21561 2 7.00868V4.32897C2 2.09829 3.706 0.273193 5.7911 0.273193H12.4362C12.7611 0.273193 13.0251 0.555649 13.0251 0.904322V3.55299C13.0251 3.97719 13.354 4.32897 13.7505 4.32897C14.1567 4.32897 14.4758 3.97719 14.4758 3.55299V0.904322C14.4758 0.555649 14.7398 0.273193 15.0658 0.273193H18.2186C20.3075 0.273193 22 2.08381 22 4.31862V6.92591C22 7.13284 21.9226 7.32942 21.7872 7.47427ZM13.7505 12.2439C14.1567 12.2439 14.4758 11.8922 14.4758 11.468V7.32942C14.4758 6.90522 14.1567 6.55344 13.7505 6.55344C13.354 6.55344 13.0251 6.90522 13.0251 7.32942V11.468C13.0251 11.8922 13.354 12.2439 13.7505 12.2439Z" fill="#030229"/>
</g>
</g>
</svg>
